<?xml version="1.0" encoding="UTF-8"?>
<svg id="helios-mark" xmlns="http://www.w3.org/2000/svg" version="1.1" viewBox="0 0 221.462 221.462">
  <path d="M30.206,191.98c8.348,0,15.115-6.767,15.115-15.115,0-8.348-6.767-15.115-15.115-15.115-8.348,0-15.115,6.767-15.115,15.115s6.767,15.115,15.115,15.115ZM30.206,188.667c-6.518,0-11.802-5.284-11.802-11.802,0-6.518,5.284-11.802,11.802-11.802,6.518,0,11.802,5.284,11.802,11.802,0,6.518-5.284,11.802-11.802,11.802Z" style="fill: #f27b21;"/>
  <circle cx="30.206" cy="176.865" r="9.272" style="fill: #f27b21;"/>
  <line x1="30.206" y1="178.246" x2="94.383" y2="125.145" style="fill: none; stroke: #f27b21; stroke-miterlimit: 10; stroke-width: 5.759px;"/>
  <path d="M51.897,75.337c16.63,0,30.111-13.481,30.111-30.111,0-16.63-13.481-30.111-30.111-30.111-16.63,0-30.111,13.481-30.111,30.111s13.481,30.111,30.111,30.111ZM51.897,68.737c-12.985,0-23.511-10.526-23.511-23.511,0-12.985,10.526-23.511,23.511-23.511,12.985,0,23.511,10.526,23.511,23.511,0,12.985-10.526,23.511-23.511,23.511Z" style="fill: #fcb748;"/>
  <circle cx="51.897" cy="45.226" r="20.326" style="fill: #fcb748;"/>
  <circle cx="176.782" cy="182.076" r="20.326" style="fill: #da6b69;"/>
  <path d="M176.782,213.278c17.232,0,31.202-13.97,31.202-31.202,0-17.232-13.97-31.202-31.202-31.202s-31.202,13.97-31.202,31.202c0,17.232,13.97,31.202,31.202,31.202ZM176.782,206.438c-13.455,0-24.362-10.907-24.362-24.362,0-13.455,10.907-24.362,24.362-24.362,13.455,0,24.362,10.907,24.362,24.362,0,13.455-10.907,24.362-24.362,24.362Z" style="fill: #da6b69;"/>
  <path d="M137.126,125.145c0,23.606-19.136,42.742-42.742,42.742s-42.742-19.136-42.742-42.742,19.136-42.742,42.742-42.742v-12c-30.233,0-54.742,24.509-54.742,54.742s24.509,54.742,54.742,54.742,54.742-24.509,54.742-54.742h-12Z" style="fill: #c65628;"/>
  <line x1="94.383" y1="125.145" x2="51.897" y2="45.226" style="fill: none; stroke: #fcb748; stroke-miterlimit: 10; stroke-width: 9.872px;"/>
  <path d="M99.42,99.81v-10.865c-1.647-.227-3.327-.354-5.036-.354-20.188,0-36.554,16.366-36.554,36.554s16.366,36.554,36.554,36.554,36.554-16.366,36.554-36.554c0-4.202-.718-8.234-2.023-11.991h-29.495v-13.344Z" style="fill: #c65628;"/>
  <line x1="106.085" y1="134.734" x2="177.385" y2="182.571" style="fill: none; stroke: #da6b69; stroke-linecap: round; stroke-miterlimit: 10; stroke-width: 9.05px;"/>
  <rect x="195.31" y="28.178" width="12.625" height="97.484" style="fill: #844e21;"/>
  <circle cx="94.383" cy="125.145" r="36.554" style="fill: #c65628;"/>
  <rect x="151.216" y="26.122" width="12" height="100.561" transform="translate(80.813 233.618) rotate(-90)" style="fill: #844e21;"/>
  <rect x="137.126" y="28.178" width="12" height="84.415" transform="translate(286.251 140.771) rotate(-180)" style="fill: #844e21;"/>
</svg>
